<svg xmlns="http://www.w3.org/2000/svg" xmlns:xlink="http://www.w3.org/1999/xlink" width="450" zoomAndPan="magnify" viewBox="0 0 337.5 337.500003" height="450" preserveAspectRatio="xMidYMid meet" version="1.0"><defs><clipPath id="c8ec251996"><path d="M 38 242 L 116 242 L 116 337 L 38 337 Z M 38 242 " clip-rule="nonzero"/></clipPath><clipPath id="a8ee7c0ed2"><path d="M 13.648438 134 L 117 134 L 117 223 L 13.648438 223 Z M 13.648438 134 " clip-rule="nonzero"/></clipPath><clipPath id="359ba38f4e"><path d="M 13.648438 186 L 79 186 L 79 223 L 13.648438 223 Z M 13.648438 186 " clip-rule="nonzero"/></clipPath><clipPath id="3e47ae72aa"><path d="M 13.648438 160 L 102 160 L 102 223 L 13.648438 223 Z M 13.648438 160 " clip-rule="nonzero"/></clipPath></defs><g clip-path="url(#c8ec251996)"><path fill="#fbcb41" d="M 113.347656 259.460938 L 101.246094 251.117188 L 89.140625 242.785156 C 89.140625 242.785156 53.4375 246.097656 43.199219 269.269531 C 32.976562 292.4375 42.015625 337.117188 42.015625 337.117188 C 42.015625 337.117188 86.988281 329.652344 104.992188 311.835938 C 122.980469 294.015625 113.347656 259.460938 113.347656 259.460938 " fill-opacity="1" fill-rule="nonzero"/></g><path fill="#f1982b" d="M 110.601562 257.566406 L 101.246094 251.117188 L 91.890625 244.679688 C 91.890625 244.679688 64.3125 247.238281 56.402344 265.144531 C 48.507812 283.039062 55.492188 317.5625 55.492188 317.5625 C 55.492188 317.5625 90.242188 311.789062 104.136719 298.019531 C 118.035156 284.265625 110.601562 257.566406 110.601562 257.566406 " fill-opacity="1" fill-rule="nonzero"/><path fill="#88b9d2" d="M 71.167969 242.308594 L 120.21875 276.09375 L 131.339844 259.9375 L 82.289062 226.152344 L 71.167969 242.308594 " fill-opacity="1" fill-rule="nonzero"/><path fill="#f2f1f9" d="M 270.609375 9.484375 C 176.195312 0.0507812 69.824219 202.339844 69.824219 202.339844 L 162.007812 265.851562 C 162.007812 265.851562 313.082031 94.355469 270.609375 9.484375 " fill-opacity="1" fill-rule="nonzero"/><path fill="#f1487a" d="M 233.085938 63.972656 C 246.476562 73.199219 260.242188 80.011719 273.113281 84.234375 C 280.53125 57.347656 281.484375 31.210938 270.609375 9.484375 C 246.445312 7.070312 222.355469 17.269531 199.898438 33.785156 C 208.429688 44.300781 219.695312 54.746094 233.085938 63.972656 " fill-opacity="1" fill-rule="nonzero"/><path fill="#f1487a" d="M 154.085938 281.128906 L 58.382812 215.1875 L 71.644531 195.9375 L 167.347656 261.878906 L 154.085938 281.128906 " fill-opacity="1" fill-rule="nonzero"/><path fill="#88b9d2" d="M 177.65625 87.679688 C 168.328125 101.230469 171.742188 119.773438 185.292969 129.101562 C 198.828125 138.445312 217.367188 135.015625 226.707031 121.480469 C 236.035156 107.925781 232.621094 89.382812 219.070312 80.054688 C 205.523438 70.726562 186.984375 74.140625 177.65625 87.679688 " fill-opacity="1" fill-rule="nonzero"/><path fill="#83d7f6" d="M 219.246094 116.34375 C 212.753906 125.773438 199.851562 128.148438 190.410156 121.652344 C 180.980469 115.160156 178.609375 102.242188 185.101562 92.8125 C 191.597656 83.382812 204.511719 81.011719 213.9375 87.503906 C 223.367188 94 225.753906 106.914062 219.246094 116.34375 " fill-opacity="1" fill-rule="nonzero"/><path fill="#c0bce4" d="M 166.144531 261.039062 L 72.859375 196.761719 C 74.144531 194.417969 75.839844 191.394531 77.890625 187.808594 C 116.546875 184.148438 155.125 160.183594 188.644531 131.113281 C 192.925781 133.3125 197.554688 134.367188 202.152344 134.367188 C 211.625 134.367188 220.921875 129.867188 226.707031 121.480469 C 232.996094 112.339844 233.488281 100.925781 228.992188 91.597656 C 235.050781 84.988281 240.777344 78.449219 246.113281 72.128906 C 254.863281 77.089844 263.609375 81.011719 271.984375 83.859375 C 260.515625 124.214844 234.847656 167.605469 211.203125 201.882812 C 209.832031 200.058594 208.296875 198.238281 206.605469 196.445312 L 173.679688 244.261719 C 173.679688 244.261719 174.691406 246.023438 175.734375 249.394531 C 171.769531 254.3125 168.503906 258.246094 166.144531 261.039062 " fill-opacity="1" fill-rule="nonzero"/><path fill="#c7407a" d="M 271.984375 83.859375 C 263.609375 81.011719 254.863281 77.089844 246.113281 72.128906 C 259.042969 56.839844 269.714844 42.828125 277.378906 32.269531 C 279.445312 48.105469 277.144531 65.664062 271.984375 83.859375 " fill-opacity="1" fill-rule="nonzero"/><path fill="#c7407a" d="M 162.007812 265.855469 L 69.824219 202.34375 C 69.824219 202.34375 70.878906 200.347656 72.859375 196.761719 L 166.144531 261.039062 C 163.5 264.164062 162.007812 265.855469 162.007812 265.855469 " fill-opacity="1" fill-rule="nonzero"/><path fill="#7098c4" d="M 202.152344 134.367188 C 197.554688 134.367188 192.925781 133.3125 188.644531 131.113281 C 191.175781 128.914062 193.679688 126.671875 196.164062 124.429688 C 198.117188 125.023438 200.144531 125.3125 202.152344 125.3125 C 208.746094 125.3125 215.226562 122.1875 219.246094 116.34375 C 222.890625 111.050781 223.742188 104.671875 222.121094 98.929688 C 224.449219 96.488281 226.734375 94.027344 228.992188 91.597656 C 233.488281 100.925781 232.996094 112.339844 226.707031 121.480469 C 220.921875 129.867188 211.625 134.367188 202.152344 134.367188 " fill-opacity="1" fill-rule="nonzero"/><path fill="#6cafe3" d="M 202.152344 125.3125 C 200.144531 125.3125 198.117188 125.023438 196.164062 124.429688 C 205.277344 116.128906 213.96875 107.523438 222.121094 98.929688 C 223.742188 104.671875 222.890625 111.050781 219.246094 116.34375 C 215.226562 122.1875 208.746094 125.3125 202.152344 125.3125 " fill-opacity="1" fill-rule="nonzero"/><g clip-path="url(#a8ee7c0ed2)"><path fill="#f1487a" d="M 116.039062 138.617188 L 83.097656 186.433594 C 83.097656 186.433594 53.480469 181.589844 22.535156 222.523438 L 13.84375 216.535156 C 13.84375 216.535156 49.738281 111.253906 116.039062 138.617188 " fill-opacity="1" fill-rule="nonzero"/></g><path fill="#f1487a" d="M 206.605469 196.445312 L 173.679688 244.261719 C 173.679688 244.261719 188.746094 270.207031 161.53125 313.714844 L 170.222656 319.703125 C 170.222656 319.703125 255.789062 248.644531 206.605469 196.445312 " fill-opacity="1" fill-rule="nonzero"/><path fill="#c7407a" d="M 168.359375 318.414062 L 161.53125 313.714844 C 174.445312 293.058594 177.84375 276.371094 177.828125 264.523438 C 177.828125 257.929688 176.773438 252.824219 175.734375 249.394531 C 174.691406 246.023438 173.679688 244.261719 173.679688 244.261719 L 193.78125 215.074219 C 214.054688 258.839844 183.671875 301.074219 168.359375 318.414062 " fill-opacity="1" fill-rule="nonzero"/><g clip-path="url(#359ba38f4e)"><path fill="#cac5e8" d="M 22.535156 222.523438 L 13.84375 216.535156 L 22.535156 222.523438 C 22.566406 222.492188 22.59375 222.464844 22.621094 222.421875 C 22.59375 222.464844 22.566406 222.492188 22.535156 222.523438 M 22.710938 222.304688 C 22.722656 222.277344 22.765625 222.234375 22.78125 222.203125 C 22.765625 222.234375 22.722656 222.277344 22.710938 222.304688 M 22.839844 222.132812 C 22.898438 222.058594 22.925781 222 22.96875 221.957031 C 22.925781 222 22.898438 222.058594 22.839844 222.132812 M 22.96875 221.957031 C 46.683594 190.90625 69.535156 186.609375 78.789062 186.277344 C 69.535156 186.609375 46.683594 190.90625 22.96875 221.957031 " fill-opacity="1" fill-rule="nonzero"/></g><path fill="#c0bce4" d="M 78.789062 186.277344 C 79.191406 186.261719 79.570312 186.261719 79.917969 186.261719 C 79.570312 186.261719 79.191406 186.261719 78.789062 186.277344 " fill-opacity="1" fill-rule="nonzero"/><path fill="#cac5e8" d="M 14.769531 214.003906 C 14.800781 213.914062 14.84375 213.828125 14.871094 213.742188 C 14.84375 213.828125 14.800781 213.914062 14.769531 214.003906 " fill-opacity="1" fill-rule="nonzero"/><path fill="#c0bce4" d="M 83.097656 186.433594 L 101.144531 160.226562 L 83.097656 186.433594 " fill-opacity="1" fill-rule="nonzero"/><g clip-path="url(#3e47ae72aa)"><path fill="#c7407a" d="M 22.535156 222.523438 L 13.84375 216.535156 C 13.859375 216.503906 14.164062 215.59375 14.769531 214.003906 C 14.800781 213.914062 14.84375 213.828125 14.871094 213.742188 C 43.359375 172.375 81.855469 162.511719 101.144531 160.226562 L 83.097656 186.433594 C 83.097656 186.433594 82.011719 186.246094 80.046875 186.246094 C 80.003906 186.246094 79.960938 186.246094 79.917969 186.261719 C 79.570312 186.261719 79.191406 186.261719 78.789062 186.277344 C 69.535156 186.609375 46.683594 190.90625 22.96875 221.957031 C 22.925781 222 22.898438 222.058594 22.839844 222.132812 C 22.824219 222.144531 22.8125 222.175781 22.78125 222.203125 C 22.765625 222.234375 22.722656 222.277344 22.710938 222.304688 C 22.679688 222.347656 22.652344 222.378906 22.621094 222.421875 C 22.59375 222.464844 22.566406 222.492188 22.535156 222.523438 " fill-opacity="1" fill-rule="nonzero"/></g></svg>